# xmcd
#
# Track frame offsets:
#	150
#	7474
#	18344
#	30424
#	47271
#	56143
#	65040
#	76119
#	96525
#	108158
#	119538
#	129270
#	144396
#	155950
#	164670
#	174240
#
# Disc length: 2432 seconds
#
# Revision: 1
# Processed by: cddbd v1.5.2PL0 Copyright (c) Steve Scherf et al.
# Submitted via: EZCDAudioConverter 7.0.0.1
#
DISCID=d8097e10
DTITLE=Słuczajnaja Wstriecza - Rosyjska
DYEAR=2007
DGENRE=
TTITLE0=Katierin
TTITLE1=Woźnico nie pędź koni
TTITLE2=Okrył się miesiąc rumieńcem
TTITLE3=Tylko raz w życiu
TTITLE4=Żyje moja radość
TTITLE5=Kalinka
TTITLE6=Krobecznicy
TTITLE7=Rosja
TTITLE8=Hej woźnico
TTITLE9=Mar-Dziandzia
TTITLE10=Pokochałam ja cygana
TTITLE11=Prawosławny Don
TTITLE12=Gitara siedmiostrunna
TTITLE13=Ognisty taniec
TTITLE14=A na koniec powiem
TTITLE15=Spotkanie
EXTD=
EXTT0=
EXTT1=
EXTT2=
EXTT3=
EXTT4=
EXTT5=
EXTT6=
EXTT7=
EXTT8=
EXTT9=
EXTT10=
EXTT11=
EXTT12=
EXTT13=
EXTT14=
EXTT15=
PLAYORDER=
